<svg width="97" height="97" viewBox="0 0 97 97" fill="none" xmlns="http://www.w3.org/2000/svg">
<g clip-path="url(#clip0_227_1753)">
<path d="M48.15 96.3C74.7425 96.3 96.3 74.7425 96.3 48.15C96.3 21.5575 74.7425 0 48.15 0C21.5575 0 0 21.5575 0 48.15C0 74.7425 21.5575 96.3 48.15 96.3Z" fill="#FFFAEB"/>
<path d="M30.68 39.1699C33.3807 39.1699 35.57 36.9806 35.57 34.2799C35.57 31.5792 33.3807 29.3899 30.68 29.3899C27.9794 29.3899 25.79 31.5792 25.79 34.2799C25.79 36.9806 27.9794 39.1699 30.68 39.1699Z" fill="#51025E"/>
<path d="M24.1799 48.6198C23.1499 47.8198 22.7899 46.4298 23.2699 45.2198C24.0699 43.2098 26.0499 40.3198 30.7999 40.3198C35.5499 40.3198 37.4399 43.2698 38.1399 45.2798C38.5499 46.4698 38.1799 47.7898 37.1899 48.5698C35.9799 49.5198 33.8999 50.5998 30.6499 50.5998C27.3999 50.5998 25.3899 49.5598 24.1799 48.6198Z" fill="#51025E"/>
<path d="M65.6102 39.1699C68.3109 39.1699 70.5002 36.9806 70.5002 34.2799C70.5002 31.5792 68.3109 29.3899 65.6102 29.3899C62.9095 29.3899 60.7202 31.5792 60.7202 34.2799C60.7202 36.9806 62.9095 39.1699 65.6102 39.1699Z" fill="#51025E"/>
<path d="M59.1101 48.6198C58.0801 47.8198 57.7201 46.4298 58.2001 45.2198C59.0001 43.2098 60.9801 40.3198 65.7301 40.3198C70.4801 40.3198 72.3701 43.2698 73.0701 45.2798C73.4801 46.4698 73.1101 47.7898 72.1201 48.5698C70.9101 49.5198 68.8301 50.5998 65.5801 50.5998C62.3301 50.5998 60.3201 49.5598 59.1101 48.6198Z" fill="#51025E"/>
<path d="M48.1503 66.1201C50.8509 66.1201 53.0403 63.9308 53.0403 61.2301C53.0403 58.5294 50.8509 56.3401 48.1503 56.3401C45.4496 56.3401 43.2603 58.5294 43.2603 61.2301C43.2603 63.9308 45.4496 66.1201 48.1503 66.1201Z" fill="#51025E"/>
<path d="M41.6501 75.58C40.6201 74.78 40.2601 73.39 40.7401 72.18C41.5401 70.17 43.5201 67.28 48.2701 67.28C53.0201 67.28 54.9101 70.23 55.6101 72.24C56.0201 73.43 55.6501 74.75 54.6601 75.53C53.4501 76.48 51.3701 77.56 48.1201 77.56C44.8701 77.56 42.8601 76.52 41.6501 75.58Z" fill="#51025E"/>
<path d="M37.46 29.23C38.62 28.36 42.73 25.49 48.61 25.75C53.57 25.97 56.99 28.29 58.24 29.23" stroke="#51025E" stroke-width="2.5" stroke-miterlimit="10" stroke-linecap="round"/>
<path d="M72.4698 52.8C72.2698 54.24 71.3798 59.17 67.0498 63.14C63.3898 66.49 59.3298 67.27 57.7798 67.49" stroke="#51025E" stroke-width="2.5" stroke-miterlimit="10" stroke-linecap="round"/>
<path d="M39.1299 67.3299C37.6899 67.1299 32.7599 66.2399 28.7899 61.9099C25.4399 58.2499 24.6599 54.1899 24.4399 52.6399" stroke="#51025E" stroke-width="2.5" stroke-miterlimit="10" stroke-linecap="round"/>
</g>
<defs>
<clipPath id="clip0_227_1753">
<rect width="96.29" height="96.29" fill="white"/>
</clipPath>
</defs>
</svg>
