<svg width="97" height="97" viewBox="0 0 97 97" fill="none" xmlns="http://www.w3.org/2000/svg">
<path d="M48.15 96.3C74.7425 96.3 96.3 74.7425 96.3 48.15C96.3 21.5575 74.7425 0 48.15 0C21.5575 0 0 21.5575 0 48.15C0 74.7425 21.5575 96.3 48.15 96.3Z" fill="#FFFAEB"/>
<path d="M71.3299 33.31C72.3499 33.31 73.1799 34.14 73.1799 35.16C73.1799 35.62 72.9899 36.09 72.6199 36.46C72.2499 36.83 71.7899 37.02 71.3199 37.02H54.3499C54.5399 36.46 54.6299 35.81 54.6299 35.17C54.6299 34.53 54.5399 33.87 54.3499 33.32H71.3199L71.3299 33.31ZM48.1399 30.52C50.7399 30.52 52.7799 32.56 52.7799 35.16C52.7799 37.76 50.7399 39.8 48.1399 39.8C45.5399 39.8 43.4999 37.76 43.4999 35.16C43.4999 32.56 45.5399 30.52 48.1399 30.52ZM23.6599 33.86C24.0299 33.49 24.4899 33.3 24.9599 33.3H41.9299C41.7399 33.86 41.6499 34.51 41.6499 35.15C41.6499 35.79 41.7399 36.45 41.9299 37H24.9599C23.9399 37 23.1099 36.17 23.1099 35.15C23.1099 34.69 23.2999 34.22 23.6699 33.85L23.6599 33.86Z" fill="#51025E"/>
<path d="M24.9599 50C23.9399 50 23.1099 49.17 23.1099 48.15C23.1099 47.69 23.2999 47.22 23.6699 46.85C24.0399 46.48 24.4999 46.29 24.9699 46.29H26.1799C25.9899 46.85 25.8999 47.5 25.8999 48.14C25.8999 48.78 25.9899 49.44 26.1799 49.99H24.9699L24.9599 50ZM32.3799 52.78C29.7799 52.78 27.7399 50.74 27.7399 48.14C27.7399 45.54 29.7799 43.5 32.3799 43.5C34.9799 43.5 37.0199 45.54 37.0199 48.14C37.0199 50.74 34.9799 52.78 32.3799 52.78ZM72.6299 49.44C72.2599 49.81 71.7999 50 71.3299 50H38.5899C38.7799 49.44 38.8699 48.79 38.8699 48.15C38.8699 47.51 38.7799 46.85 38.5899 46.3H71.3299C72.3499 46.3 73.1799 47.13 73.1799 48.15C73.1799 48.61 72.9899 49.08 72.6199 49.45L72.6299 49.44Z" fill="#51025E"/>
<path d="M24.9599 62.98C23.9399 62.98 23.1099 62.15 23.1099 61.13C23.1099 60.67 23.2999 60.2 23.6699 59.83C24.0399 59.46 24.4999 59.27 24.9699 59.27H51.2199C51.0299 59.83 50.9399 60.48 50.9399 61.12C50.9399 61.76 51.0299 62.42 51.2199 62.97H24.9699L24.9599 62.98ZM57.4199 65.77C54.8199 65.77 52.7799 63.73 52.7799 61.13C52.7799 58.53 54.8199 56.49 57.4199 56.49C60.0199 56.49 62.0599 58.53 62.0599 61.13C62.0599 63.73 60.0199 65.77 57.4199 65.77ZM72.6299 62.43C72.2599 62.8 71.7999 62.99 71.3299 62.99H63.6299C63.8199 62.43 63.9099 61.78 63.9099 61.14C63.9099 60.5 63.8199 59.84 63.6299 59.29H71.3299C72.3499 59.29 73.1799 60.12 73.1799 61.14C73.1799 61.6 72.9899 62.07 72.6199 62.44L72.6299 62.43Z" fill="#51025E"/>
</svg>
