<svg width="97" height="97" viewBox="0 0 97 97" fill="none" xmlns="http://www.w3.org/2000/svg">
<g clip-path="url(#clip0_227_1732)">
<path d="M48.15 96.3C74.7425 96.3 96.3 74.7425 96.3 48.15C96.3 21.5575 74.7425 0 48.15 0C21.5575 0 0 21.5575 0 48.15C0 74.7425 21.5575 96.3 48.15 96.3Z" fill="#FFFAEB"/>
<path d="M44.8898 20.72H28.5598C24.6998 20.72 21.5698 23.85 21.5698 27.7V53.97C21.5698 57.83 24.6998 60.95 28.5598 60.95H44.5398C44.6498 60.95 44.7498 60.95 44.8598 60.95C43.9398 59.23 43.7398 57.28 43.6398 55.22H29.3098C28.3498 55.22 27.5798 54.44 27.5798 53.49C27.5798 52.54 28.3598 51.76 29.3098 51.76H43.9098C44.8198 47.36 47.8498 43.32 51.8798 41.57V27.71C51.8798 23.85 48.7598 20.73 44.8998 20.73L44.8898 20.72ZM31.7898 29.74H35.1098L36.1398 26.58C36.3298 26.01 37.1298 26.01 37.3198 26.58L38.3498 29.74H41.6698C42.2698 29.74 42.5198 30.51 42.0298 30.86L39.3398 32.81L40.3698 35.97C40.5598 36.54 39.8998 37.02 39.4198 36.66L36.7298 34.71L34.0398 36.66C33.5598 37.01 32.8998 36.54 33.0898 35.97L34.1198 32.81L31.4298 30.86C30.9498 30.51 31.1998 29.74 31.7898 29.74ZM44.1398 46.02H29.3098C28.3498 46.02 27.5798 45.25 27.5798 44.29C27.5798 43.33 28.3598 42.56 29.3098 42.56H44.1398C45.0998 42.56 45.8698 43.34 45.8698 44.29C45.8698 45.24 45.0898 46.02 44.1398 46.02Z" fill="#51025E"/>
<path d="M60.4099 54.85C62.4975 54.85 64.1899 53.1577 64.1899 51.07C64.1899 48.9824 62.4975 47.29 60.4099 47.29C58.3222 47.29 56.6299 48.9824 56.6299 51.07C56.6299 53.1577 58.3222 54.85 60.4099 54.85Z" fill="#51025E"/>
<path d="M55.3799 62.15C54.5899 61.54 54.2999 60.46 54.6799 59.52C55.2999 57.97 56.8299 55.73 60.4999 55.73C64.1699 55.73 65.6299 58.01 66.1699 59.56C66.4899 60.48 66.1999 61.5 65.4399 62.1C64.5099 62.84 62.8999 63.67 60.3899 63.67C57.8799 63.67 56.3299 62.87 55.3899 62.14L55.3799 62.15Z" fill="#51025E"/>
<path d="M79.8697 71.0201L71.4597 63.3901C73.1297 61.1201 74.1397 58.3201 74.1397 55.2801C74.1397 47.7101 67.9997 41.5801 60.4297 41.5801C58.4897 41.5801 56.6497 41.9801 54.9697 42.7101C50.9397 44.4601 47.9097 48.0901 46.9997 52.4901C46.8097 53.3901 46.7197 54.3201 46.7197 55.2801C46.7197 55.5001 46.7197 55.7301 46.7397 55.9501C46.8397 58.0101 47.3897 59.9501 48.3097 61.6801C50.6097 66.0301 55.1797 68.9901 60.4297 68.9901C63.4697 68.9901 66.2097 67.9801 68.5397 66.3101L76.1697 74.7101C76.2297 74.7701 76.2897 74.8301 76.3497 74.8901C77.4297 75.8501 79.0897 75.7801 80.0497 74.7101C80.9997 73.6401 80.9397 71.9701 79.8697 71.0101V71.0201ZM60.4297 65.9501C56.5697 65.9501 53.1897 63.9101 51.3197 60.8401C50.3297 59.2201 49.7597 57.3201 49.7597 55.2801C49.7597 51.3801 51.8397 47.9701 54.9697 46.1101C56.5697 45.1601 58.4297 44.6101 60.4297 44.6101C66.3297 44.6101 71.0997 49.3801 71.0997 55.2801C71.0997 61.1801 66.2697 65.9501 60.4297 65.9501Z" fill="#51025E"/>
</g>
<defs>
<clipPath id="clip0_227_1732">
<rect width="96.29" height="96.29" fill="white"/>
</clipPath>
</defs>
</svg>
