<svg width="110" height="35" viewBox="0 0 110 35" fill="none" xmlns="http://www.w3.org/2000/svg">
<path d="M55.0356 0.0422363C45.0648 0.0422363 38.3691 5.89076 38.3691 17.2461V34.9348H46.1404C46.1404 32.1359 46.1371 29.3369 46.1113 26.5412C46.0822 23.355 47.1675 20.9563 49.1636 19.0459C49.4091 18.8115 49.6384 18.3071 49.619 17.9458C49.4833 15.3389 50.42 13.5065 52.1513 12.1038C53.1816 11.2706 54.1151 10.2552 55.0195 9.39271C56.024 10.3398 57.0543 11.3975 58.1525 12.3349C59.6932 13.6432 60.5556 15.3324 60.3973 17.6789C60.3521 18.3429 60.5168 18.766 60.9851 19.1956C62.978 21.0116 63.9728 23.4493 63.9567 26.538C63.9405 29.3369 63.9405 32.1359 63.9405 34.9381H71.6988V17.2493C71.7021 5.82567 65.0064 0.0454909 55.0356 0.0454909V0.0422363Z" fill="#51025E"/>
<path d="M110 18.0012C110 7.63531 102.762 0.0390625 92.8942 0.0390625C83.0268 0.0390625 75.4268 7.81431 75.4268 17.64C75.4268 27.4656 83.2626 35 93.3723 35C100.672 35 107.19 30.5998 109.163 24.3314H100.491C98.4562 26.7431 96.4827 27.6446 93.1946 27.6446C88.4692 27.6446 84.9971 25.1125 84.041 21.0768H109.703C109.942 19.993 110.003 19.2705 110.003 18.0012H110ZM102.3 14.3756C101.961 15.0363 101.273 15.4854 100.53 15.7002C100.488 15.71 100.446 15.723 100.404 15.7328C99.6125 15.9313 98.776 15.8955 97.9556 15.8109C95.8755 15.5961 93.8374 15.0721 91.767 14.7661C89.6966 14.4635 87.539 14.3886 85.5881 15.0558C84.8679 15.3032 84.0442 15.6742 83.6114 16.2795C83.4499 15.4789 83.6114 14.6262 83.8633 13.8223C83.8827 13.7605 83.8989 13.7051 83.9215 13.6433C83.9312 13.6075 83.9441 13.5684 83.9602 13.5326C83.9796 13.4708 83.999 13.4122 84.0216 13.3504C84.0571 13.2462 84.0959 13.1453 84.1347 13.0412C84.1347 13.0412 84.1347 13.0347 84.1379 13.0282C84.1863 12.9013 84.2348 12.7776 84.2832 12.6539C84.7387 11.4855 85.4105 10.3952 86.2761 9.46765C88.0138 7.61252 90.5332 6.43436 93.1591 6.32045C95.785 6.20328 98.4885 7.16664 100.391 8.95993C101.366 9.87773 102.142 11.0233 102.445 12.2959C102.61 12.9891 102.626 13.7442 102.303 14.3723L102.3 14.3756Z" fill="#51025E"/>
<path d="M17.3577 0C7.77122 0 0 7.83057 0 17.4902C0 27.1499 7.77122 34.9805 17.3577 34.9805C26.9441 34.9805 34.7153 27.1499 34.7153 17.4902C34.7153 7.83057 26.9409 0 17.3577 0ZM17.3577 27.1792C12.0477 27.1792 7.74215 22.8408 7.74215 17.4902C7.74215 12.1397 12.0477 7.80128 17.3577 7.80128C22.6677 7.80128 26.9732 12.1397 26.9732 17.4902C26.9732 22.8408 22.6677 27.1792 17.3577 27.1792Z" fill="#51025E"/>
</svg>
